<?xml version="1.0" encoding="UTF-8" standalone="no"?>
<!DOCTYPE svg PUBLIC "-//W3C//DTD SVG 1.1//EN" "http://www.w3.org/Graphics/SVG/1.1/DTD/svg11.dtd">
<svg width="100%" height="100%" viewBox="0 0 166 166" version="1.1" xmlns="http://www.w3.org/2000/svg" xmlns:xlink="http://www.w3.org/1999/xlink" xml:space="preserve" xmlns:serif="http://www.serif.com/" style="fill-rule:evenodd;clip-rule:evenodd;stroke-linejoin:round;stroke-miterlimit:2;">
    <g transform="matrix(1,0,0,1,-2254.220476,-3722.706667)">
        <g transform="matrix(2.666667,0,0,2.666667,0,0)">
            <g transform="matrix(1,0,0,1,0,-2591.758)">
                <path d="M906.859,4013.086L907.383,4016.858C907.357,4017.475 907.373,4018.108 907.388,4018.72C907.405,4019.391 907.423,4020.086 907.384,4020.755C906.667,4033.006 898.997,4043.353 887.367,4047.757C875.699,4052.175 863.044,4049.478 854.337,4040.719C845.651,4031.979 843.014,4019.327 847.457,4007.7C851.88,3996.123 862.21,3988.487 874.406,3987.773L878.284,3987.773C878.738,3987.892 879.231,3987.927 879.708,3987.96C879.978,3987.979 880.257,3987.998 880.519,3988.033C893.624,3989.768 904.455,4000.073 906.859,4013.086ZM901.548,4033.669C907.112,4024.238 907.017,4012.999 901.294,4003.604C895.57,3994.207 885.648,3988.968 874.738,3989.581C865.118,3990.125 856.377,3995.392 851.356,4003.671C846.276,4012.045 845.667,4021.955 849.685,4030.859C854.249,4040.974 863.619,4047.375 874.748,4047.983C875.321,4048.014 875.889,4048.03 876.456,4048.03C886.901,4048.029 896.192,4042.748 901.548,4033.669ZM878.893,4045.542C869.163,4046.458 860.003,4042.257 854.385,4034.309C848.691,4026.253 847.854,4016.123 852.147,4007.21C856.474,3998.228 864.971,3992.524 874.877,3991.951C875.402,3991.921 875.925,3991.905 876.446,3991.905C885.251,3991.905 893.395,3996.206 898.466,4003.613C903.868,4011.503 904.742,4021.369 900.803,4030.004C896.781,4038.823 888.59,4044.631 878.893,4045.542ZM856.039,4033.56C860.801,4040.161 868.126,4043.897 876.237,4043.897C876.507,4043.897 876.779,4043.893 877.05,4043.885C885.441,4043.628 893.123,4039.247 897.601,4032.164C902.675,4024.139 902.816,4014.416 897.978,4006.153C893.132,3997.874 884.578,3993.226 875.104,3993.723C865.774,3994.212 857.79,3999.542 853.747,4007.983C849.709,4016.411 850.565,4025.973 856.039,4033.56ZM893.595,4015.196C893.14,4015.917 892.345,4016.409 891.357,4016.582C889.894,4016.838 888.288,4016.92 886.735,4016.999C885.358,4017.07 883.935,4017.143 882.616,4017.336C882.216,4017.394 881.597,4017.702 881.473,4018.127C881.337,4018.596 881.398,4021.329 881.507,4021.919L886.894,4035.857C887.14,4037.895 885.908,4039.073 884.577,4039.336C883.225,4039.604 881.513,4038.962 880.942,4036.907L876.55,4026.031L876.085,4026.295L876.065,4026.34C875.322,4028.016 874.649,4029.758 873.997,4031.444C873.299,4033.25 872.577,4035.118 871.769,4036.902C871.719,4037.011 871.672,4037.121 871.625,4037.23C871.355,4037.849 871.101,4038.435 870.534,4038.849C869.51,4039.598 868.215,4039.65 867.157,4038.983C866.094,4038.313 865.579,4037.119 865.806,4035.893L871.21,4021.892C871.311,4021.329 871.372,4018.596 871.236,4018.127C871.113,4017.702 870.493,4017.394 870.094,4017.336C868.797,4017.146 867.385,4017.076 866.019,4017.008C864.406,4016.928 862.737,4016.845 861.25,4016.564C859.274,4016.192 858.639,4014.66 858.696,4013.462C858.755,4012.229 859.601,4010.83 861.322,4010.673C861.451,4010.661 861.596,4010.656 861.747,4010.656C861.983,4010.656 862.232,4010.667 862.448,4010.676L862.524,4010.679C864.737,4010.771 866.915,4010.974 869.021,4011.171C872.561,4011.501 876.222,4011.842 880.075,4011.651C881.678,4011.572 883.349,4011.368 884.964,4011.171C886.731,4010.956 888.559,4010.733 890.3,4010.673C892.313,4010.602 893.477,4011.265 893.877,4012.694C894.137,4013.627 894.039,4014.492 893.595,4015.196ZM891.384,4014.756C892.078,4014.533 892.355,4014.017 892.186,4013.264C891.992,4012.397 891.115,4012.425 890.475,4012.444L890.412,4012.446C888.671,4012.497 886.834,4012.726 885.058,4012.947C883.483,4013.144 881.854,4013.347 880.304,4013.424C876.026,4013.636 872.085,4013.287 867.913,4012.918C866.562,4012.799 865.165,4012.675 863.759,4012.573C863.625,4012.563 863.458,4012.547 863.273,4012.53C862.586,4012.465 861.731,4012.384 861.307,4012.48L861.306,4012.48C860.727,4012.611 860.471,4013.152 860.475,4013.631C860.479,4014.104 860.748,4014.636 861.356,4014.762L870.98,4015.702C871.913,4015.976 872.813,4016.891 872.988,4017.74C873.19,4018.726 873.098,4021.516 872.885,4022.461C872.368,4024.752 871.237,4027.264 870.143,4029.693C869.198,4031.79 868.222,4033.959 867.652,4035.961C867.406,4036.596 867.569,4037.212 868.065,4037.529C868.235,4037.637 868.447,4037.703 868.675,4037.703C868.991,4037.703 869.338,4037.576 869.645,4037.257L874.753,4025.023C875.086,4024.494 875.684,4024.178 876.355,4024.178C877.025,4024.178 877.624,4024.494 877.945,4025L883,4037.163C883.417,4037.779 884.093,4037.789 884.544,4037.537C885.014,4037.274 885.373,4036.667 885.057,4035.968C884.342,4033.92 883.492,4031.878 882.669,4029.903C881.806,4027.833 880.914,4025.692 880.181,4023.547C879.682,4022.089 879.379,4019.408 879.721,4017.74C879.96,4016.578 881.159,4015.786 882.22,4015.604C883.691,4015.352 885.286,4015.262 886.828,4015.174C888.338,4015.089 889.9,4015.001 891.384,4014.756ZM881.814,4005.942C880.976,4007.856 879.306,4009.038 877.115,4009.268C874.202,4009.577 870.858,4008.033 870.394,4003.922C870.053,4000.923 871.697,3997.646 875.494,3997.187C877.855,3996.902 879.849,3997.675 881.105,3999.367C882.457,4001.186 882.742,4003.829 881.814,4005.942ZM876.906,4007.496C878.466,4007.322 879.649,4006.472 880.235,4005.103C880.876,4003.605 880.653,4001.739 879.682,4000.461C878.774,3999.267 877.36,3998.734 875.696,3998.959C873.019,3999.322 871.881,4001.647 872.142,4003.756C872.375,4005.64 873.769,4007.531 876.301,4007.53C876.496,4007.53 876.699,4007.519 876.906,4007.496Z"/>
            </g>
        </g>
    </g>
</svg>
