<?xml version="1.0" encoding="UTF-8" standalone="no"?>
<!DOCTYPE svg PUBLIC "-//W3C//DTD SVG 1.1//EN" "http://www.w3.org/Graphics/SVG/1.1/DTD/svg11.dtd">
<svg width="100%" height="100%" viewBox="0 0 162 160" version="1.1" xmlns="http://www.w3.org/2000/svg" xmlns:xlink="http://www.w3.org/1999/xlink" xml:space="preserve" xmlns:serif="http://www.serif.com/" style="fill-rule:evenodd;clip-rule:evenodd;stroke-linejoin:round;stroke-miterlimit:2;">
    <g transform="matrix(1,0,0,1,-760.603643,-3712.606703)">
        <g transform="matrix(2.666667,0,0,2.666667,0,0)">
            <g transform="matrix(1,0,0,1,0,-2603.292)">
                <path d="M285.262,4022.834C285.216,4022.422 285.213,4021.536 285.262,4021.128C285.687,4017.578 288.803,4015.949 290.989,4013.641C293.829,4010.643 292.142,4005.536 296.04,4002.492C299.443,3999.834 303.977,4001.899 307.096,4000.03C310.144,3998.204 311.93,3995.245 316.01,3995.54C320.185,3995.841 322.431,4000.357 325.991,4000.782C329.09,4001.152 332.296,4000.426 334.941,4002.548C337.97,4004.979 337.492,4008.272 338.625,4011.531C339.584,4014.288 343.318,4015.934 344.743,4018.568C347.928,4024.456 341.99,4027.357 342.246,4032.396C342.422,4035.871 343.821,4038.715 341.567,4041.952C339.828,4044.448 336.704,4044.945 334.165,4046.242C330.675,4048.025 330.248,4052.982 326.377,4054.652C322.968,4056.123 320.601,4054.509 317.406,4053.717C312.848,4052.588 309.789,4056.237 305.351,4054.936C300.592,4053.542 300.56,4048.128 296.507,4046.12C293.739,4044.749 290.715,4044.366 289.016,4041.433C286.674,4037.392 289.684,4033.411 288.328,4029.817C287.503,4027.63 285.524,4025.179 285.262,4022.834ZM314.698,3997.525C312.06,3997.887 309.596,4001.223 307.088,4002.216C303.942,4003.46 299.501,4002.011 296.949,4004.254C294.662,4006.264 295.058,4010.647 293.604,4013.333C292.005,4016.288 287.496,4018.004 287.212,4021.556C286.962,4024.681 290.235,4027.671 290.586,4030.725C290.894,4033.413 289.49,4036.965 290.217,4039.378C291.386,4043.254 296.357,4043.185 299.079,4045.375C300.69,4046.671 301.792,4049.139 303.011,4050.821C306.905,4056.193 311.464,4050.985 316.37,4051.464C318.85,4051.706 321.583,4053.539 324.149,4053.276C328.152,4052.866 329.066,4047.603 331.837,4045.375C333.638,4043.926 336.532,4043.43 338.507,4042.18C342.778,4039.478 339.879,4034.663 340.33,4030.725C340.686,4027.622 344.01,4024.654 343.691,4021.448C343.351,4018.036 338.938,4016.251 337.353,4013.413C335.832,4010.689 336.286,4006.216 333.901,4004.197C331.355,4002.04 327.006,4003.416 323.917,4002.247C320.716,4001.037 318.566,3996.994 314.698,3997.525ZM315.315,4005.441C329.601,4005.317 339.332,4020.02 333.778,4033.185C327.745,4047.485 308.245,4049.587 299.237,4036.932C289.899,4023.813 299.301,4005.579 315.315,4005.441ZM315.315,4007.39C301.039,4007.522 292.511,4023.698 300.625,4035.542C307.85,4046.087 323.448,4045.904 330.484,4035.25C338.365,4023.318 329.543,4007.258 315.315,4007.39ZM323.099,4016.409C326.724,4015.879 328.694,4019.807 326.297,4022.655C324.185,4025.165 321.11,4027.813 318.742,4030.202C316.709,4032.252 314.382,4035.982 311.035,4033.778C309.065,4031.547 306.209,4029.441 304.375,4027.162C301.587,4023.697 306.093,4019.297 309.493,4022.041C310.648,4022.973 311.696,4024.407 312.835,4025.4L313.181,4025.502L321.301,4017.29C321.794,4016.892 322.468,4016.502 323.099,4016.409ZM323.339,4018.355C323.098,4018.404 322.831,4018.596 322.639,4018.75L313.394,4027.899L312.541,4027.762C311.151,4026.614 309.904,4024.84 308.519,4023.747C306.544,4022.188 304.456,4024.185 306.08,4026.187C307.136,4027.49 310.572,4030.979 311.869,4031.968C312.526,4032.469 313.083,4032.634 313.876,4032.277C316.409,4030.047 318.706,4027.507 321.056,4025.085C322.078,4024.031 324.44,4022.063 325.132,4021.001C325.999,4019.671 324.884,4018.041 323.339,4018.355Z"/>
            </g>
        </g>
    </g>
</svg>
