<?xml version="1.0" encoding="UTF-8" standalone="no"?>
<!DOCTYPE svg PUBLIC "-//W3C//DTD SVG 1.1//EN" "http://www.w3.org/Graphics/SVG/1.1/DTD/svg11.dtd">
<svg width="100%" height="100%" viewBox="0 0 162 143" version="1.1" xmlns="http://www.w3.org/2000/svg" xmlns:xlink="http://www.w3.org/1999/xlink" xml:space="preserve" xmlns:serif="http://www.serif.com/" style="fill-rule:evenodd;clip-rule:evenodd;stroke-linejoin:round;stroke-miterlimit:2;">
    <g transform="matrix(1,0,0,1,-3265.562667,-3723.690249)">
        <g transform="matrix(2.666667,0,0,2.666667,0,0)">
            <g transform="matrix(1,0,0,1,0,-2603.043)">
                <path d="M1242.289,4042.755C1242.693,4042.196 1244.472,4040.432 1245.019,4040.015C1245.293,4039.805 1245.845,4039.439 1246.463,4039.335C1246.652,4039.304 1246.84,4039.288 1247.027,4039.288C1248.186,4039.288 1249.276,4039.883 1249.905,4040.896C1250.63,4042.062 1250.576,4043.484 1249.766,4044.607C1249.42,4045.086 1247.396,4047.122 1246.868,4047.484C1246.286,4047.883 1245.621,4048.093 1244.942,4048.093C1244.054,4048.094 1243.213,4047.734 1242.575,4047.08C1241.6,4046.081 1241.133,4044.356 1242.289,4042.755M1258.569,4019.414C1258.171,4019.414 1257.769,4019.489 1257.387,4019.641C1256.782,4019.884 1256.128,4020.576 1255.496,4021.246C1254.607,4022.187 1253.688,4023.16 1252.531,4023.322C1250.918,4023.548 1249.419,4022.902 1248.622,4021.636C1247.823,4020.368 1247.886,4018.738 1248.785,4017.383L1248.836,4017.306L1248.903,4017.241C1250.102,4016.081 1251.307,4014.88 1252.476,4013.717C1253.852,4012.347 1255.275,4010.93 1256.703,4009.564C1257.086,4009.198 1257.462,4008.83 1257.836,4008.465C1261.108,4005.271 1264.491,4001.968 1269.968,4001.968C1272.883,4001.968 1275.616,4002.866 1277.873,4004.566C1279.964,4006.142 1281.557,4008.317 1282.479,4010.855C1283.4,4013.392 1283.573,4016.079 1282.979,4018.624C1282.338,4021.365 1280.819,4023.807 1278.576,4025.691L1272.142,4031.713L1260.606,4020.176C1260.048,4019.677 1259.316,4019.414 1258.569,4019.414M1235.888,4037.123C1236.351,4036.258 1241.232,4031.469 1241.961,4030.89C1242.392,4030.549 1242.915,4030.186 1243.535,4030.078C1243.749,4030.041 1243.963,4030.023 1244.174,4030.023C1245.271,4030.023 1246.287,4030.517 1246.921,4031.389C1247.673,4032.422 1247.752,4033.8 1247.128,4034.984L1247.069,4035.098L1240.711,4041.479L1240.634,4041.529C1240.062,4041.898 1239.414,4042.092 1238.76,4042.092C1237.935,4042.092 1237.142,4041.78 1236.526,4041.212C1235.395,4040.169 1235.138,4038.526 1235.888,4037.123M1234.672,4026.343C1234.921,4026.235 1235.467,4026.065 1235.848,4026.046C1235.904,4026.043 1235.961,4026.042 1236.017,4026.042C1237.123,4026.042 1238.138,4026.589 1238.757,4027.529C1239.426,4028.545 1239.509,4029.853 1238.974,4030.941C1238.605,4031.694 1235.028,4035.233 1234.366,4035.593C1233.849,4035.873 1233.278,4036.022 1232.712,4036.022C1231.864,4036.022 1231.049,4035.692 1230.417,4035.094C1229.357,4034.091 1229.081,4032.581 1229.713,4031.248C1230.114,4030.402 1233.688,4026.771 1234.672,4026.343M1263.809,4034.506C1263.417,4034.359 1263.058,4034.403 1262.796,4034.628C1262.521,4034.863 1262.402,4035.263 1262.478,4035.696L1262.483,4035.723L1262.495,4035.747C1262.705,4036.164 1263.737,4037.152 1264.69,4038.048C1265.362,4038.68 1265.943,4039.225 1266.253,4039.616C1267.488,4041.172 1267.384,4043.011 1265.995,4044.192C1265.212,4044.858 1263.924,4045.445 1262.237,4044.463C1261.233,4043.879 1260.328,4042.881 1259.529,4041.999C1259.033,4041.453 1258.564,4040.936 1258.18,4040.64C1257.637,4040.223 1257.135,4040.357 1256.846,4040.622C1256.565,4040.879 1256.395,4041.355 1256.757,4041.922C1257.029,4042.347 1257.781,4043.032 1258.446,4043.638C1259.699,4044.779 1260.882,4045.857 1261.092,4046.887C1261.333,4048.068 1261.019,4049.193 1260.23,4049.974C1259.638,4050.56 1258.835,4050.883 1257.968,4050.883C1257.706,4050.883 1257.438,4050.854 1257.171,4050.796C1256.117,4050.569 1255.073,4049.498 1253.599,4047.888C1253.021,4047.256 1252.423,4046.603 1252.032,4046.314L1251.572,4045.975L1251.71,4045.42C1251.797,4045.07 1251.911,4044.754 1252.023,4044.444C1252.185,4043.993 1252.326,4043.602 1252.362,4043.179C1252.569,4040.801 1251.146,4038.483 1249.052,4037.787L1248.353,4037.554L1248.48,4036.828C1248.563,4036.357 1248.777,4035.969 1248.966,4035.627C1249.089,4035.406 1249.204,4035.197 1249.265,4034.998C1249.882,4032.99 1249.371,4030.952 1247.897,4029.547C1246.391,4028.111 1244.203,4027.671 1242.187,4028.397L1241.348,4028.699L1241.081,4027.848C1240.511,4026.028 1239.05,4024.684 1237.173,4024.253C1235.343,4023.833 1233.488,4024.393 1232.212,4025.75L1231.639,4026.359L1231.017,4025.799C1228.643,4023.658 1227.092,4020.687 1226.648,4017.432C1226.208,4014.203 1226.885,4010.912 1228.555,4008.167C1232.454,4001.758 1240.716,3999.522 1247.365,4003.076C1249.351,4004.137 1250.928,4005.748 1252.454,4007.307C1252.877,4007.738 1253.276,4008.145 1253.686,4008.545L1254.313,4009.155L1247.468,4015.858L1247.45,4015.878C1245.914,4017.899 1245.68,4020.427 1246.839,4022.473C1248,4024.523 1250.218,4025.564 1252.775,4025.258C1254.415,4025.062 1255.498,4024.018 1256.752,4022.81C1257.172,4022.405 1257.606,4021.987 1258.072,4021.597L1258.674,4021.092L1272.391,4034.906L1272.455,4035.048C1273.006,4036.281 1272.686,4037.679 1271.657,4038.528C1270.641,4039.368 1269.226,4039.42 1268.137,4038.657C1267.515,4038.221 1266.837,4037.464 1266.118,4036.662C1265.165,4035.598 1264.334,4034.702 1263.809,4034.506M1282.194,4006.085C1277.711,4000.224 1269.61,3998.382 1262.932,4001.706C1261.04,4002.648 1259.544,4004.119 1257.957,4005.68C1257.418,4006.211 1256.86,4006.759 1256.29,4007.28L1255.676,4007.841L1254.856,4006.992C1252.123,4004.159 1249.541,4001.483 1245.736,4000.243C1240.98,3998.692 1235.878,3999.372 1231.739,4002.109C1227.637,4004.821 1225.03,4009.196 1224.586,4014.111L1224.586,4016.858C1224.645,4017.584 1224.861,4018.687 1225.176,4019.884C1225.905,4022.649 1227.418,4025.165 1229.552,4027.161L1230.271,4027.834L1229.503,4028.452C1227.688,4029.909 1227.004,4032.266 1227.76,4034.456C1228.337,4036.127 1229.921,4037.924 1232.634,4037.955L1233.464,4037.964L1233.479,4038.794C1233.532,4041.689 1235.89,4044.045 1238.735,4044.045C1238.765,4044.045 1238.795,4044.045 1238.825,4044.044L1239.661,4044.03L1239.693,4044.865C1239.784,4047.218 1241.125,4049.039 1243.281,4049.739C1245.519,4050.464 1247.935,4049.697 1249.437,4047.784L1249.994,4047.075L1250.672,4047.669C1251.352,4048.265 1251.991,4048.952 1252.61,4049.617C1253.271,4050.328 1253.895,4050.999 1254.556,4051.558C1255.566,4052.412 1256.759,4052.851 1257.97,4052.851C1258.687,4052.851 1259.409,4052.697 1260.103,4052.384C1261.929,4051.561 1263.045,4049.851 1263.089,4047.809L1263.106,4047.003L1263.912,4046.974C1266.708,4046.873 1268.967,4044.666 1269.054,4041.949L1269.081,4041.125L1269.905,4041.122C1271.63,4041.116 1273.117,4040.243 1273.985,4038.727C1274.89,4037.147 1274.887,4035.195 1273.978,4033.633L1273.661,4033.09L1274.086,4032.626C1275.219,4031.389 1276.517,4030.224 1277.773,4029.099L1277.775,4029.098C1279.18,4027.838 1280.632,4026.536 1281.811,4025.161C1286.249,4019.985 1286.417,4011.606 1282.194,4006.085" style="fill-rule:nonzero;"/>
            </g>
        </g>
    </g>
</svg>
