<?xml version="1.0" encoding="UTF-8"?>
<svg id="Layer_2" data-name="Layer 2" xmlns="http://www.w3.org/2000/svg" viewBox="0 0 100.47 108.78">
  <defs>
    <style>
      .cls-1 {
        fill: #ffa433;
      }
    </style>
  </defs>
  <g id="Layer_1-2" data-name="Layer 1">
    <g>
      <path class="cls-1" d="M63.86,63.41c2.17,0,4.19,0,6.07-.14-.14,3.9-.14,8.09-.14,11.99,0,5.35,0,9.54.14,13.73l-5.63-.14c.14,7.08.43,13.58.58,19.94H31.79c.14-5.78.29-13.29.43-20.23h-.58c-9.1,0-21.09.14-31.64.43C1.16,74.83,3.9,11.4,3.9.42h27.16c-.58,11.56-2.75,44.94-3.32,63,2.75,0,5.92.14,10.11.14,0-17.34-.14-50.28-.43-63.14h27.02c-.43,15.6-.58,31.06-.58,54.04v8.96Z"/>
      <g>
        <path d="M75.83.52c1,1.13-.56,3.8-.97,5.14-3.16,10.35.96,15.44,4.83,24.28,3.36,7.68,3.13,16.7-1.32,23.91-1.17,1.9-4.23,5.45-6.28,6.3-1.36.57-2.56-.04-2.51-1.56.03-.89,1.38-3.82,1.7-5.08,2.48-9.73-1.56-14.8-5.17-23.05-4.12-9.42-2.74-21.79,5.37-28.66,1.02-.86,3.16-2.64,4.36-1.29ZM75.09,52.86c1.26-2.23,2.31-4.43,2.88-6.95,2.81-12.34-4.32-17-6.84-27.56-.97-4.07-.69-6.24-.31-10.27.02-.18.15-.56-.14-.53-3.08,4.99-4.22,11.06-3.08,16.84.9,4.52,3.81,8.74,5.51,13.05,2.28,5.79,2.39,8.76,1.83,14.89-.02.18-.15.56.14.53Z"/>
        <path d="M55.7.03c1.12-.22,2.15.63,2.1,1.78-.04.75-1.21,3.17-1.5,4.17-3.04,10.46,1.34,15.55,5.14,24.44,3.56,8.32,2.55,19.21-3.49,26.14-.89,1.02-3.95,3.92-5.26,3.87-.84-.04-1.62-.82-1.63-1.66-.01-.68,1.19-3.23,1.47-4.17,4.33-14.67-6.34-20.32-7.16-32.8-.49-7.55,2.36-16.38,8.76-20.82.38-.26,1.18-.86,1.58-.94ZM56.38,52.86c1.37-1.63,2.38-4.03,2.94-6.1,3.48-12.93-4.35-17.92-6.77-29.01-.49-2.27-.73-4.65-.58-6.97.07-1.06.39-2.16.39-3.23-3.15,4.6-4.23,10.6-3.34,16.08.79,4.83,3.57,8.74,5.38,13.19,2.1,5.15,3.26,10.49,1.97,16.04Z"/>
        <path d="M92.68.03c.99-.19,2.05.56,2.06,1.62,0,.67-1.19,3.24-1.47,4.17-4.33,14.61,6.36,20.39,7.16,32.96.43,6.74-1.9,14.52-6.92,19.19-1.03.96-3.21,2.9-4.61,2.24-1.89-.89-.01-3.86.44-5.31,3.32-10.75-1.06-15.76-4.98-24.91-3.35-7.81-2.66-17.54,2.26-24.54,1.01-1.44,4.38-5.09,6.07-5.42ZM93.35,52.86c4.04-5.66,4.74-13.71,2.32-20.18-3.11-8.33-7.47-12.57-6.73-22.53.06-.86.37-1.74.39-2.6-3.46,4.9-4.41,11.35-3.18,17.18.85,4.01,3.26,7.61,4.86,11.35,2.29,5.38,3.63,10.92,2.33,16.78Z"/>
      </g>
    </g>
  </g>
</svg>