<?xml version="1.0" encoding="UTF-8"?>
<svg id="Layer_2" data-name="Layer 2" xmlns="http://www.w3.org/2000/svg" viewBox="0 0 92.48 109.81">
  <defs>
    <style>
      .cls-1 {
        fill: #ffa433;
      }
    </style>
  </defs>
  <g id="Layer_1-2" data-name="Layer 1">
    <g>
      <path class="cls-1" d="M0,109.81c.14-2.17.29-5.78.29-10.69,0-3.9-.14-7.37-.14-12.14,0-19.65,6.21-27.02,20.23-34.24,12.14-6.65,15.6-10.11,15.6-19.94,0-5.06-1.88-7.22-5.49-7.22-3.9,0-5.63,2.75-5.63,9.25,0,2.46.14,5.2.29,8.67-2.89-.14-6.36-.14-10.4-.14-5.35,0-10.11.14-13.73.58-.43-4.91-.58-9.1-.58-12.86C.43,10.26,8.53,0,31.5,0s30.78,9.54,30.78,30.34c0,23.98-6.65,32.51-22.11,39.01-8.67,3.76-12.28,6.65-13,10.98,5.06.14,10.4.14,13.73.14,7.22,0,14.3-.43,20.08-1.01-.14,4.77-.29,9.83-.14,15.17,0,5.49,0,10.55.14,15.17H0Z"/>
      <path d="M67.68,1.35c2.11.19,4.61,1.35,6.2,2.74,2.98,2.61,4.01,6.34,3.74,10.22h8.94c.82,0,1.5,1.45,1.45,2.18l4.45,42.39c.16,1.21-.44,2.16-1.69,2.28l-48.89-.1c-.61-.25-.95-.66-1.17-1.28l4.58-44.2c0-.45.96-1.28,1.29-1.28h8.94c-.18-3.17.37-6.07,2.29-8.63,1.72-2.29,4.76-4.07,7.64-4.33.59-.05,1.63-.05,2.22,0ZM73.99,14.32v-3.1c0-.6-.7-2.14-1.03-2.71-2.93-4.93-10.22-4.73-12.94.31-.27.51-.87,1.99-.87,2.51v2.98h14.85ZM55.52,17.82h-6.9l-4.03,39.83h44.13l-4.21-39.83h-6.9v4.26c0,.2-.47.94-.66,1.09-.83.69-2.19.41-2.71-.52-.05-.08-.25-.64-.25-.69v-4.15h-14.85v4.26c0,.15-.41.85-.56.99-.83.8-2.25.56-2.82-.42-.05-.08-.25-.64-.25-.69v-4.15Z"/>
    </g>
  </g>
</svg>