<?xml version="1.0" encoding="UTF-8" standalone="no"?>
<!DOCTYPE svg PUBLIC "-//W3C//DTD SVG 1.1//EN" "http://www.w3.org/Graphics/SVG/1.1/DTD/svg11.dtd">
<svg width="100%" height="100%" viewBox="0 0 165 165" version="1.1" xmlns="http://www.w3.org/2000/svg" xmlns:xlink="http://www.w3.org/1999/xlink" xml:space="preserve" xmlns:serif="http://www.serif.com/" style="fill-rule:evenodd;clip-rule:evenodd;stroke-linejoin:round;stroke-miterlimit:2;">
    <g transform="matrix(1,0,0,1,-1264.786933,-3711.300316)">
        <g transform="matrix(2.666667,0,0,2.666667,0,0)">
            <g transform="matrix(1,0,0,1,0,-2562.152)">
                <path d="M488.111,4011.005C485.281,4012.325 482.251,4013.331 479.32,4014.305C478.088,4014.714 476.814,4015.137 475.571,4015.579L474.295,4015.579L474.295,4014.305C474.835,4012.847 475.34,4011.314 475.829,4009.83C476.95,4006.423 478.111,4002.9 479.831,3999.838C482.397,3995.273 486.763,3994.763 489.952,3996.283C493.08,3997.774 495.614,4001.481 493.784,4006.095C492.762,4008.672 490.788,4009.755 488.111,4011.005ZM476.626,4013.235L477.448,4012.965C480.077,4012.1 482.797,4011.205 485.396,4010.126L485.694,4010.003C487.227,4009.37 489.793,4008.31 490.836,4007.266C492.412,4005.69 492.898,4003.358 492.102,4001.181C491.323,3999.047 489.484,3997.607 487.305,3997.422C483.803,3997.124 482.221,3999.224 481.136,4001.317C479.758,4003.972 478.755,4006.964 477.785,4009.857C477.488,4010.743 477.181,4011.659 476.873,4012.533L476.626,4013.235ZM503.839,4002.273L487.439,3985.847C486.835,3984.99 487.185,3984.627 487.815,3983.972C488.082,3983.695 488.385,3983.381 488.618,3982.997L488.908,3982.52L478.214,3981.032C477.795,3980.778 477.568,3980.518 477.539,3980.262C477.48,3979.746 478.164,3979.105 478.767,3978.54L478.807,3978.502C483.458,3974.14 490.365,3970.939 496.833,3970.148C497.265,3970.095 497.715,3970.075 498.149,3970.055C498.863,3970.023 499.602,3969.989 500.326,3969.813L500.434,3969.787L500.509,3969.706C508.984,3960.499 521.332,3954.455 532.733,3953.931C534.303,3953.859 535.284,3953.842 535.656,3954.212C536.01,3954.563 536.017,3955.418 535.948,3957.149C535.724,3962.851 534.059,3968.93 531.135,3974.731C528.357,3980.239 524.565,3985.299 520.167,3989.366L520.058,3989.467L520.05,3989.615C519.622,3997.809 516.503,4005.583 511.493,4010.945C510.99,4011.484 510.148,4012.386 509.557,4012.289C509.284,4012.245 509.028,4011.973 508.796,4011.483L507.352,4000.948L506.868,4001.261C506.47,4001.518 506.154,4001.818 505.876,4002.082C505.138,4002.782 504.831,4003.074 503.839,4002.273ZM480.644,3979.528L490.556,3980.854L498.596,3971.861L497.647,3971.964C491.389,3972.644 485.562,3975.142 481.239,3978.997L480.644,3979.528ZM501.98,3970.865L489.417,3985.076L504.67,4000.365L505.385,4000.049L505.432,4000.004C507.716,3997.821 510.154,3995.713 512.511,3993.673C514.692,3991.786 516.947,3989.835 519.08,3987.827C525.447,3981.83 530.063,3974.433 532.429,3966.433C533.378,3963.222 533.927,3959.92 534.107,3956.339L534.112,3956.25L534.075,3956.168C533.886,3955.755 533.578,3955.772 533.412,3955.78L533.353,3955.783C522.314,3956.064 510.589,3961.699 501.98,3970.865ZM518.596,3965.264C521.958,3965.264 523.937,3967.71 524.423,3970.273C524.941,3973.006 523.851,3976.231 520.247,3977.276C517.814,3977.982 515.647,3977.47 514.146,3975.835C512.492,3974.034 511.956,3971.171 512.842,3968.873C513.642,3966.796 515.446,3965.526 517.921,3965.296C518.152,3965.274 518.376,3965.264 518.596,3965.264ZM521.992,3973.813C522.899,3972.376 522.892,3970.385 521.973,3968.971C521.449,3968.164 520.182,3966.867 517.587,3967.245C515.283,3967.58 514.246,3969.653 514.257,3971.437C514.264,3972.43 514.568,3973.382 515.116,3974.116C515.735,3974.948 516.626,3975.463 517.692,3975.604C517.95,3975.638 518.202,3975.655 518.448,3975.655C519.972,3975.655 521.239,3975.005 521.992,3973.813ZM517.909,3992.226L518.013,3991.278L509.019,3999.318L510.346,4009.235L510.878,4008.633C514.735,4004.263 517.232,3998.436 517.909,3992.226Z"/>
            </g>
        </g>
    </g>
</svg>
