<?xml version="1.0" encoding="UTF-8" standalone="no"?>
<!DOCTYPE svg PUBLIC "-//W3C//DTD SVG 1.1//EN" "http://www.w3.org/Graphics/SVG/1.1/DTD/svg11.dtd">
<svg width="100%" height="100%" viewBox="0 0 165 162" version="1.1" xmlns="http://www.w3.org/2000/svg" xmlns:xlink="http://www.w3.org/1999/xlink" xml:space="preserve" xmlns:serif="http://www.serif.com/" style="fill-rule:evenodd;clip-rule:evenodd;stroke-linejoin:round;stroke-miterlimit:2;">
    <g transform="matrix(1,0,0,1,-1756.7056,-3721.787952)">
        <g transform="matrix(2.666667,0,0,2.666667,0,0)">
            <g transform="matrix(1,0,0,1,0,-2566.944)">
                <path d="M671.201,4014.795L671.179,4014.788C671.009,4014.743 670.896,4014.808 670.844,4014.851C670.664,4014.997 670.678,4015.263 670.692,4015.521C670.697,4015.603 670.702,4015.705 670.695,4015.748C670.07,4019.319 666.198,4019.317 662.617,4019.036C660.65,4018.882 659.318,4017.731 658.765,4015.71L658.765,3995.065C659.091,3993.929 659.821,3992.482 661.451,3991.967C662.592,3991.606 666.506,3991.609 667.754,3991.891C669.666,3992.324 670.963,3994.225 670.706,3996.218L670.664,3996.547L670.99,3996.49C677.448,3995.366 683.523,3995.956 688.559,3998.195C689.181,3998.471 689.787,3998.811 690.374,3999.139C690.896,3999.432 691.436,3999.734 691.991,3999.995L692.034,4000.015L692.082,4000.018C693.866,4000.118 695.733,4000.063 697.538,4000.009C699.448,3999.952 701.422,3999.894 703.285,4000.021C706.359,4000.231 708.208,4002.146 708.231,4005.144L708.234,4005.462L708.54,4005.378C709.479,4005.12 710.451,4004.693 711.391,4004.28C713.777,4003.232 716.244,4002.148 718.57,4003.594C719.931,4004.439 720.665,4005.823 720.638,4007.492C720.606,4009.546 719.418,4011.6 717.683,4012.606C714.958,4013.951 712.234,4015.564 709.599,4017.124C706.8,4018.781 703.905,4020.494 701.02,4021.879C698.028,4023.315 695.558,4023.528 692.495,4022.612L671.201,4014.795ZM667.126,4016.685C667.908,4016.542 668.491,4015.814 668.511,4014.948L668.483,3995.608L668.478,3995.557C668.306,3994.76 667.801,3994.211 667.126,3994.088C666.374,3993.952 663.285,3993.952 662.47,3994.088C661.676,3994.221 661.182,3994.738 661.078,3995.545L661.076,3995.561L661.107,4015.41L661.107,4015.444L661.116,4015.476C661.303,4016.137 661.814,4016.608 662.451,4016.707C662.808,4016.762 663.734,4016.792 664.682,4016.792C665.689,4016.792 666.722,4016.758 667.126,4016.685ZM670.765,4012.115L671.535,4012.518L671.575,4012.534C675.041,4013.624 678.556,4015.01 681.956,4016.35C685.597,4017.785 689.363,4019.27 693.08,4020.395C694.148,4020.718 695.078,4020.885 695.98,4020.885C697.358,4020.885 698.669,4020.496 700.301,4019.679C703.185,4018.236 706.065,4016.557 708.85,4014.934C711.346,4013.479 713.926,4011.975 716.495,4010.649L716.512,4010.639C717.848,4009.81 718.859,4007.968 718.163,4006.437C717.644,4005.298 716.352,4004.92 714.707,4005.426C712.49,4006.108 710.585,4006.904 708.742,4007.673C705.179,4009.161 701.812,4010.566 696.957,4010.752L696.63,4010.764C694.498,4010.847 691.276,4010.971 689.429,4010.754L689.37,4010.748C689.284,4010.739 689.247,4010.733 689.225,4010.721L689.225,4008.423C690.51,4008.373 691.83,4008.398 693.221,4008.424C696.899,4008.493 700.702,4008.564 704.002,4007.199C705.344,4006.643 706.095,4005.531 705.915,4004.365C705.743,4003.248 704.773,4002.452 703.444,4002.337C701.413,4002.161 699.227,4002.24 697.112,4002.318C695.182,4002.388 693.188,4002.461 691.324,4002.338C685.862,3998.654 678.366,3997.278 671.744,3998.747L671.702,3998.757C670.883,3998.935 670.753,3999.008 670.706,3999.183L670.697,3999.215L670.765,4012.115ZM693.968,3962.659C696.531,3962.48 699.001,3963.392 701.307,3965.369L701.458,3965.497L701.615,3965.376C704.198,3963.386 706.509,3962.512 708.888,3962.624C713.054,3962.822 716.687,3965.369 718.371,3969.268C720.046,3973.15 719.405,3977.523 716.698,3980.681C715.273,3982.344 713.441,3984.132 711.669,3985.861C710.867,3986.644 710.11,3987.383 709.4,3988.1L709.198,3988.304C706.696,3990.831 704.111,3993.444 701.475,3995.907L686.119,3980.428C683.552,3977.195 683.015,3973 684.685,3969.206C686.361,3965.394 689.832,3962.947 693.968,3962.659ZM701.454,3969.175C698.991,3965.299 695.817,3964.862 694.124,3964.953C691.075,3965.117 688.12,3967.178 686.771,3970.081C685.418,3972.994 685.863,3976.28 687.992,3979.097L701.574,3992.564L714.978,3979.178L714.994,3979.161C716.502,3977.342 717.201,3975.216 717.018,3973.014C716.853,3971.043 715.985,3969.128 714.574,3967.621C712.131,3965.014 707.922,3963.645 704.026,3966.466C703.288,3967 702.769,3967.629 702.267,3968.238C702.011,3968.548 701.747,3968.869 701.454,3969.175Z"/>
            </g>
        </g>
    </g>
</svg>
