<?xml version="1.0" encoding="UTF-8" standalone="no"?>
<!DOCTYPE svg PUBLIC "-//W3C//DTD SVG 1.1//EN" "http://www.w3.org/Graphics/SVG/1.1/DTD/svg11.dtd">
<svg width="100%" height="100%" viewBox="0 0 165 166" version="1.1" xmlns="http://www.w3.org/2000/svg" xmlns:xlink="http://www.w3.org/1999/xlink" xml:space="preserve" xmlns:serif="http://www.serif.com/" style="fill-rule:evenodd;clip-rule:evenodd;stroke-linejoin:round;stroke-miterlimit:2;">
    <g transform="matrix(1,0,0,1,-2734.23076,-3724.138667)">
        <g transform="matrix(2.666667,0,0,2.666667,0,0)">
            <g transform="matrix(1,0,0,1,0,-2592.363)">
                <path d="M1077.72,4049.529L1061.849,4033.665C1061.269,4032.848 1061.706,4032.36 1062.527,4031.567L1062.852,4031.251L1059.773,4028.202L1059.604,4028.312C1056.605,4030.279 1053.558,4031.521 1050.548,4032.003C1044.942,4032.904 1039.292,4031.609 1034.637,4028.358C1029.99,4025.113 1026.835,4020.27 1025.754,4014.73L1025.355,4011.95C1025.375,4011.526 1025.363,4011.093 1025.351,4010.659C1025.338,4010.203 1025.325,4009.731 1025.354,4009.274C1026.073,3998.386 1034.819,3989.635 1045.69,3988.917L1048.342,3988.915L1051.148,3989.313C1056.703,3990.404 1061.546,3993.561 1064.788,3998.203C1068.036,4002.854 1069.329,4008.506 1068.429,4014.117C1067.946,4017.128 1066.705,4020.176 1064.739,4023.176L1064.628,4023.345L1067.673,4026.422L1067.851,4026.246C1067.933,4026.165 1068.013,4026.083 1068.094,4026.001C1068.786,4025.293 1069.243,4024.823 1070.058,4025.394L1085.975,4041.334C1088.066,4044.274 1087.219,4047.348 1085.451,4049.09C1083.685,4050.832 1080.603,4051.638 1077.72,4049.529ZM1084.115,4042.157L1074.618,4032.666L1069.09,4038.196L1079.281,4048.243L1079.316,4048.268C1079.999,4048.659 1080.703,4048.857 1081.409,4048.857C1082.558,4048.857 1083.683,4048.302 1084.42,4047.372C1085.463,4046.055 1085.774,4043.933 1084.115,4042.157ZM1046.987,4030.309C1053.709,4030.309 1059.906,4026.978 1063.563,4021.399C1067.653,4015.159 1067.847,4007.236 1064.068,4000.722C1060.29,3994.207 1053.318,3990.442 1045.894,3990.891C1038.777,3991.324 1032.616,3995.39 1029.413,4001.768C1026.216,4008.135 1026.639,4015.501 1030.545,4021.472C1034.164,4027.002 1040.307,4030.306 1046.978,4030.309L1046.987,4030.309ZM1045.926,3993.826C1052.066,3993.411 1057.743,3996.274 1061.103,4001.481C1064.485,4006.724 1064.751,4013.125 1061.812,4018.603C1059.018,4023.815 1053.783,4027.089 1047.81,4027.362C1041.805,4027.632 1036.281,4024.835 1033.01,4019.88C1029.687,4014.846 1029.31,4008.598 1032.001,4003.168C1034.699,3997.724 1039.904,3994.231 1045.926,3993.826ZM1060.679,4016.506C1062.751,4011.683 1062.156,4006.242 1059.087,4001.952C1056.027,3997.675 1051.094,3995.361 1045.889,3995.766C1040.249,3996.201 1035.42,3999.755 1033.287,4005.04C1031.149,4010.336 1032.166,4016.265 1035.94,4020.512C1038.73,4023.652 1042.747,4025.452 1046.963,4025.452C1047.77,4025.452 1048.586,4025.387 1049.389,4025.257C1054.456,4024.437 1058.676,4021.166 1060.679,4016.506ZM1046.407,3998.672C1046.987,3998.672 1047.721,3998.776 1047.924,3999.271C1048.069,3999.623 1048.081,3999.888 1047.962,4000.083C1047.678,4000.547 1046.649,4000.635 1045.897,4000.699C1045.62,4000.722 1045.358,4000.744 1045.151,4000.782C1043.289,4001.127 1041.297,4002.176 1039.953,4003.52C1039.197,4004.276 1038.458,4005.42 1038.056,4006.169C1037.952,4006.362 1037.871,4006.577 1037.782,4006.814C1037.49,4007.597 1037.255,4008.105 1036.53,4008.033C1036.18,4007.999 1035.965,4007.881 1035.854,4007.663C1035.583,4007.131 1035.934,4005.938 1036.793,4004.473C1038.232,4002.023 1040.818,3999.992 1043.542,3999.174C1044.622,3998.85 1045.639,3998.672 1046.407,3998.672ZM1036.213,4010.923C1036.439,4010.923 1036.648,4011.011 1036.835,4011.184C1037.095,4011.426 1037.196,4011.731 1037.117,4012.042C1037.021,4012.421 1036.685,4012.755 1036.301,4012.854C1035.98,4012.936 1035.679,4012.843 1035.435,4012.583C1035.009,4012.128 1035.164,4011.569 1035.488,4011.244C1035.692,4011.04 1035.956,4010.923 1036.213,4010.923ZM1061.292,4026.989L1064.257,4029.827L1066.248,4027.729L1063.413,4024.867L1061.292,4026.989ZM1069.395,4027.558L1063.985,4032.969L1067.672,4036.781L1073.205,4031.247L1069.395,4027.558Z"/>
            </g>
        </g>
    </g>
</svg>
