<?xml version="1.0" encoding="UTF-8"?>
<svg id="Layer_2" data-name="Layer 2" xmlns="http://www.w3.org/2000/svg" viewBox="0 0 96.64 111.25">
  <defs>
    <style>
      .cls-1 {
        fill: #ffa433;
      }
    </style>
  </defs>
  <g id="Layer_1-2" data-name="Layer 1">
    <g>
      <path class="cls-1" d="M46.09,56.2c2.75.29,5.06.72,6.94,1.45,8.38,3.32,10.69,10.55,10.69,22.54,0,21.67-8.96,31.06-32.22,31.06-24.85,0-31.5-8.81-31.5-31.35,0-2.6.14-5.63.29-8.96,3.61.29,8.09.43,13.29.43,4.91,0,8.81-.14,11.85-.29-.29,2.31-.29,4.19-.29,5.78,0,7.66,1.45,10.26,5.78,10.26s5.92-2.17,5.92-10.26c0-9.1-2.46-11.42-9.97-11.42-4.48,0-8.24,0-11.99.29.14-3.03.29-6.93.29-10.55s-.14-6.65-.14-9.1c2.17.14,6.21.29,11.7.29,7.66,0,9.97-2.6,9.97-10.98,0-8.81-1.88-11.41-5.49-11.41-4.48,0-6.07,3.03-6.07,9.97,0,1.88.14,4.19.14,6.93-2.75-.14-6.94-.29-11.7-.29s-9.68.14-13.29.43c-.29-4.04-.29-7.51-.29-10.84C0,9.39,7.37,0,31.93,0c23.12,0,31.5,8.52,31.5,29.04,0,13-2.46,20.81-10.26,24.42-1.88.87-4.33,1.45-7.08,1.88v.87Z"/>
      <path d="M69.26,61.98c-.48-.12-1.56-1.04-1.56-1.5v-7.75l-6.07,3.23c-2.2.42-3.46-2.13-1.84-3.65l7.92-4.57v-12.79l-11.23,6.36c-.09,2.3-.09,4.61-.06,6.91,0,.57.17,1.01.11,1.66-.23,2.58-3.09,3.09-4.13.8l-.18-6.85-6.16,3.5c-2.45,1.24-4.49-1.89-2.23-3.55l6.23-3.56-.07-.25c-1.61-.99-3.55-1.87-5.08-2.94-2.44-1.72-.73-4.66,1.67-3.83l7.75,4.46,11.11-6.38-11.11-6.5-7.75,4.46c-2.6.73-4.02-2.18-1.67-3.83,1.53-1.08,3.47-1.94,5.08-2.94l.07-.25c-1.85-1.11-4.03-2.08-5.8-3.27-.59-.4-1.25-.87-1.38-1.63-.28-1.71,1.33-3.03,2.94-2.34l6.4,3.63.18-6.85c1.1-2.35,3.97-1.73,4.14.91.04.56-.12.96-.12,1.43-.02,2.34-.02,4.69.06,7.03l11.23,6.36v-12.79l-7.92-4.57c-1.61-1.52-.36-4.07,1.84-3.65l6.07,3.23V2c0-.11.54-.88.68-1,.77-.67,1.96-.67,2.72,0,.14.13.68.89.68,1v7.75l6.07-3.23c2.23-.42,3.45,2.11,1.84,3.65l-7.92,4.57v12.79l11.23-6.36c.09-2.34.09-4.69.06-7.03,0-.47-.16-.88-.12-1.43.17-2.64,3.05-3.26,4.14-.91l.18,6.85,6.4-3.63c1.6-.69,3.21.63,2.94,2.34-.12.76-.78,1.23-1.38,1.63-1.77,1.19-3.95,2.16-5.8,3.27l.07.25c1.61,1,3.54,1.86,5.08,2.94,2.44,1.72.73,4.66-1.67,3.83l-7.75-4.46-11.11,6.5,11.11,6.38,7.75-4.46c2.6-.73,4.02,2.17,1.67,3.83-1.53,1.08-3.47,1.95-5.08,2.94l-.07.25,6.23,3.56c2.25,1.66.22,4.8-2.23,3.55l-6.16-3.5c-.04,1.3.05,2.61,0,3.91,0,.26-.11.48-.12.72-.07,1.3.34,2.86-1.2,3.48-1.62.65-2.84-.44-2.99-2.06-.06-.65.11-1.09.11-1.66.02-2.3.02-4.61-.06-6.91l-11.23-6.36v12.79l7.92,4.57c1.61,1.52.36,4.07-1.84,3.65l-6.07-3.23v7.75c0,.46-1.08,1.38-1.56,1.5h-.96Z"/>
    </g>
  </g>
</svg>