<?xml version="1.0" encoding="UTF-8"?>
<svg id="Layer_2" data-name="Layer 2" xmlns="http://www.w3.org/2000/svg" viewBox="0 0 74.33 109.7">
  <defs>
    <style>
      .cls-1 {
        fill: #ffa433;
      }
    </style>
  </defs>
  <g id="Layer_1-2" data-name="Layer 1">
    <g>
      <path class="cls-1" d="M1.01,55.38C1.01,30.09.43,19.54,0,12.75,7.08,9.43,12.86,5.67,18.06,1.19c3.32,0,5.63.14,8.24.14,2.89,0,5.78,0,7.66-.14-.14,12.71-.43,31.06-.43,54.18s.29,39.3.43,54.18c-7.22-.14-12.28-.14-16.91-.14s-9.39,0-16.18.29c.14-15.03.14-31.21.14-54.33Z"/>
      <path d="M9.57,23.9c.43-1.73,1.74-2.77,3.41-3.23l17.56-2.62,7.9-15.95c1.93-2.79,5.1-2.81,7.04,0l7.9,15.95,17.65,2.65c3.5,1.05,4.31,4.19,1.99,7s-5.89,5.66-8.48,8.22c-1.34,1.32-2.67,2.65-3.96,4.02l2.87,17.07c.31,3.88-2.47,6.02-6.1,4.46l-15.35-8.05-15.61,8.13c-3.43,1.39-6.15-.64-5.95-4.3l2.89-17.3c-1.34-1.41-2.71-2.78-4.09-4.14-2.98-2.94-6.22-5.71-8.95-8.89l-.73-1.73v-1.27ZM70.55,24.54c-.48-.16-.97-.27-1.48-.36-5.62-1.04-11.5-1.48-17.15-2.46-.96-.23-1.13-.53-1.59-1.32-2.85-4.82-4.83-10.79-7.67-15.61-.12-.2-.49-.93-.75-.88-.29.23-.46.57-.65.88-2.84,4.82-4.82,10.79-7.67,15.61-.46.79-.64,1.09-1.59,1.32-5.65.98-11.53,1.42-17.16,2.45-.5.09-.99.21-1.47.36.25.71.87,1.05,1.33,1.51,3.27,3.31,6.68,6.47,9.99,9.74.53.53,2.38,2.22,2.53,2.78.11.41.08.89.04,1.32-.42,5.58-2.47,11.75-3,17.36-.03.31-.02.62-.02.93.16.17,1.74-.68,2.03-.82,5.08-2.54,9.99-5.42,15.09-7.94,1.1-.33,2.61.71,3.64,1.23,4.25,2.15,8.38,4.58,12.65,6.71.28.14,1.87.99,2.03.82,0-.31.01-.62-.02-.93-.53-5.62-2.58-11.79-3-17.36-.03-.42-.07-.9.04-1.32.15-.56,1.88-2.14,2.4-2.66,3.31-3.27,6.71-6.44,9.99-9.74.5-.51,1.18-.87,1.46-1.64Z"/>
    </g>
  </g>
</svg>